<svg xmlns="http://www.w3.org/2000/svg" style="display:none">
  <!-- FiApp UI icon sprite (Batch D). Self-hosted, same-origin, covered by default-src 'self'.
       24x24 outline icons; stroke styling comes from the .fi-ico CSS class on the consuming
       <svg> (stroke:currentColor, stroke-width:2, round caps/joins, fill:none), so symbols
       stay attribute-free except for deliberately filled shapes.
       Usage: <svg class="fi-ico" aria-hidden="true"><use href="/static/icons/ui-sprite.svg#fi-home"/></svg> -->
  <symbol id="fi-home" viewBox="0 0 24 24"><path d="M3 12l9-9 9 9"/><path d="M5 10v10a1 1 0 0 0 1 1h4v-6h4v6h4a1 1 0 0 0 1-1V10"/></symbol>
  <symbol id="fi-trending-up" viewBox="0 0 24 24"><polyline points="3 17 9 11 13 15 21 7"/><polyline points="15 7 21 7 21 13"/></symbol>
  <symbol id="fi-trending-down" viewBox="0 0 24 24"><polyline points="3 7 9 13 13 9 21 17"/><polyline points="15 17 21 17 21 11"/></symbol>
  <symbol id="fi-repeat" viewBox="0 0 24 24"><path d="M17 2l4 4-4 4"/><path d="M3 11v-1a4 4 0 0 1 4-4h14"/><path d="M7 22l-4-4 4-4"/><path d="M21 13v1a4 4 0 0 1-4 4H3"/></symbol>
  <symbol id="fi-chart-pie" viewBox="0 0 24 24"><path d="M21.21 15.89A10 10 0 1 1 8 2.83"/><path d="M22 12A10 10 0 0 0 12 2v10z"/></symbol>
  <symbol id="fi-plus" viewBox="0 0 24 24"><line x1="12" y1="5" x2="12" y2="19"/><line x1="5" y1="12" x2="19" y2="12"/></symbol>
  <symbol id="fi-dots" viewBox="0 0 24 24"><circle cx="5" cy="12" r="1.6" fill="currentColor" stroke="none"/><circle cx="12" cy="12" r="1.6" fill="currentColor" stroke="none"/><circle cx="19" cy="12" r="1.6" fill="currentColor" stroke="none"/></symbol>
  <symbol id="fi-chevron-left" viewBox="0 0 24 24"><polyline points="15 18 9 12 15 6"/></symbol>
  <symbol id="fi-chevron-right" viewBox="0 0 24 24"><polyline points="9 18 15 12 9 6"/></symbol>
  <symbol id="fi-chevron-down" viewBox="0 0 24 24"><polyline points="6 9 12 15 18 9"/></symbol>
  <symbol id="fi-cloud-check" viewBox="0 0 24 24"><path d="M18 10h-1.26A8 8 0 1 0 9 20h9a5 5 0 0 0 0-10z"/><polyline points="9 14.5 11 16.5 15 12.5"/></symbol>
  <symbol id="fi-wifi-off" viewBox="0 0 24 24"><line x1="2" y1="2" x2="22" y2="22"/><path d="M8.5 16.5a5 5 0 0 1 7 0"/><path d="M5 12.55a11 11 0 0 1 5.17-2.39"/><path d="M10.71 5.05A16 16 0 0 1 22.58 9"/><path d="M1.42 9a15.91 15.91 0 0 1 4.7-2.88"/><path d="M16.85 11.25a10.95 10.95 0 0 1 2.16 1.3"/><line x1="12" y1="20" x2="12.01" y2="20"/></symbol>
  <symbol id="fi-target" viewBox="0 0 24 24"><circle cx="12" cy="12" r="9"/><circle cx="12" cy="12" r="5"/><circle cx="12" cy="12" r="1.2" fill="currentColor" stroke="none"/></symbol>
  <symbol id="fi-calendar" viewBox="0 0 24 24"><rect x="3" y="4" width="18" height="18" rx="2"/><line x1="16" y1="2" x2="16" y2="6"/><line x1="8" y1="2" x2="8" y2="6"/><line x1="3" y1="10" x2="21" y2="10"/></symbol>
  <symbol id="fi-check" viewBox="0 0 24 24"><polyline points="20 6 9 17 4 12"/></symbol>
  <symbol id="fi-x" viewBox="0 0 24 24"><line x1="18" y1="6" x2="6" y2="18"/><line x1="6" y1="6" x2="18" y2="18"/></symbol>
  <symbol id="fi-receipt" viewBox="0 0 24 24"><path d="M5 21V5a2 2 0 0 1 2-2h10a2 2 0 0 1 2 2v16l-3-2-2 2-2-2-2 2-2-2-3 2"/><line x1="9" y1="8" x2="15" y2="8"/><line x1="9" y1="12" x2="15" y2="12"/></symbol>
  <symbol id="fi-exchange" viewBox="0 0 24 24"><polyline points="17 3 21 7 17 11"/><line x1="21" y1="7" x2="9" y2="7"/><polyline points="7 13 3 17 7 21"/><line x1="3" y1="17" x2="15" y2="17"/></symbol>
  <symbol id="fi-user" viewBox="0 0 24 24"><path d="M20 21v-2a4 4 0 0 0-4-4H8a4 4 0 0 0-4 4v2"/><circle cx="12" cy="7" r="4"/></symbol>
  <symbol id="fi-help" viewBox="0 0 24 24"><circle cx="12" cy="12" r="9"/><path d="M9.5 9a2.5 2.5 0 0 1 5 .5c0 1.5-2.5 2-2.5 3.5"/><line x1="12" y1="17" x2="12.01" y2="17"/></symbol>
  <symbol id="fi-palette" viewBox="0 0 24 24"><path d="M12 21a9 9 0 1 1 0-18 9 8 0 0 1 9 8 4.5 4.5 0 0 1-4.5 4.5H15a2 2 0 0 0-1 3.75A1.3 1.3 0 0 1 12 21"/><circle cx="7.5" cy="10.5" r=".6" fill="currentColor" stroke="none"/><circle cx="12" cy="7.5" r=".6" fill="currentColor" stroke="none"/><circle cx="16.5" cy="10.5" r=".6" fill="currentColor" stroke="none"/></symbol>
  <symbol id="fi-settings" viewBox="0 0 24 24"><circle cx="12" cy="12" r="3"/><path d="M19.4 15a1.65 1.65 0 0 0 .33 1.82l.06.06a2 2 0 0 1 0 2.83 2 2 0 0 1-2.83 0l-.06-.06a1.65 1.65 0 0 0-1.82-.33 1.65 1.65 0 0 0-1 1.51V21a2 2 0 0 1-2 2 2 2 0 0 1-2-2v-.09A1.65 1.65 0 0 0 9 19.4a1.65 1.65 0 0 0-1.82.33l-.06.06a2 2 0 0 1-2.83 0 2 2 0 0 1 0-2.83l.06-.06a1.65 1.65 0 0 0 .33-1.82 1.65 1.65 0 0 0-1.51-1H3a2 2 0 0 1-2-2 2 2 0 0 1 2-2h.09A1.65 1.65 0 0 0 4.6 9a1.65 1.65 0 0 0-.33-1.82l-.06-.06a2 2 0 0 1 0-2.83 2 2 0 0 1 2.83 0l.06.06a1.65 1.65 0 0 0 1.82.33H9a1.65 1.65 0 0 0 1-1.51V3a2 2 0 0 1 2-2 2 2 0 0 1 2 2v.09a1.65 1.65 0 0 0 1 1.51 1.65 1.65 0 0 0 1.82-.33l.06-.06a2 2 0 0 1 2.83 0 2 2 0 0 1 0 2.83l-.06.06a1.65 1.65 0 0 0-.33 1.82V9a1.65 1.65 0 0 0 1.51 1H21a2 2 0 0 1 2 2 2 2 0 0 1-2 2h-.09a1.65 1.65 0 0 0-1.51 1z"/></symbol>
  <symbol id="fi-mic" viewBox="0 0 24 24"><path d="M12 1a3 3 0 0 0-3 3v8a3 3 0 0 0 6 0V4a3 3 0 0 0-3-3z"/><path d="M19 10v2a7 7 0 0 1-14 0v-2"/><line x1="12" y1="19" x2="12" y2="23"/><line x1="8" y1="23" x2="16" y2="23"/></symbol>
  <symbol id="fi-lock" viewBox="0 0 24 24"><rect x="3" y="11" width="18" height="11" rx="2"/><path d="M7 11V7a5 5 0 0 1 10 0v4"/></symbol>
  <symbol id="fi-eye" viewBox="0 0 24 24"><path d="M1 12s4-8 11-8 11 8 11 8-4 8-11 8-11-8-11-8z"/><circle cx="12" cy="12" r="3"/></symbol>
  <symbol id="fi-eye-off" viewBox="0 0 24 24"><path d="M17.94 17.94A10.07 10.07 0 0 1 12 20c-7 0-11-8-11-8a18.45 18.45 0 0 1 5.06-5.94"/><path d="M9.9 4.24A9.12 9.12 0 0 1 12 4c7 0 11 8 11 8a18.5 18.5 0 0 1-2.16 3.19"/><path d="M14.12 14.12a3 3 0 1 1-4.24-4.24"/><line x1="1" y1="1" x2="23" y2="23"/></symbol>
  <symbol id="fi-arrow-up-right" viewBox="0 0 24 24"><line x1="7" y1="17" x2="17" y2="7"/><polyline points="7 7 17 7 17 17"/></symbol>
  <symbol id="fi-arrow-down-right" viewBox="0 0 24 24"><line x1="7" y1="7" x2="17" y2="17"/><polyline points="17 7 17 17 7 17"/></symbol>
  <symbol id="fi-wallet" viewBox="0 0 24 24"><path d="M19 7V5a1 1 0 0 0-1-1H5a2 2 0 0 0 0 4h14a1 1 0 0 1 1 1v2"/><path d="M3 6v12a2 2 0 0 0 2 2h14a1 1 0 0 0 1-1v-4"/><path d="M21 11v4h-5a2 2 0 0 1 0-4h5"/></symbol>
  <symbol id="fi-undo" viewBox="0 0 24 24"><path d="M9 13l-4-4 4-4"/><path d="M5 9h11a4 4 0 0 1 0 8h-1"/></symbol>
  <symbol id="fi-redo" viewBox="0 0 24 24"><path d="M15 13l4-4-4-4"/><path d="M19 9H8a4 4 0 0 0 0 8h1"/></symbol>
  <symbol id="fi-share" viewBox="0 0 24 24"><path d="M4 12v7a2 2 0 0 0 2 2h12a2 2 0 0 0 2-2v-7"/><polyline points="8 6 12 2 16 6"/><line x1="12" y1="2" x2="12" y2="15"/></symbol>
  <symbol id="fi-download" viewBox="0 0 24 24"><path d="M4 15v4a2 2 0 0 0 2 2h12a2 2 0 0 0 2-2v-4"/><polyline points="8 11 12 15 16 11"/><line x1="12" y1="3" x2="12" y2="15"/></symbol>
  <symbol id="fi-clipboard" viewBox="0 0 24 24"><rect x="8" y="2" width="8" height="4" rx="1"/><path d="M16 4h2a2 2 0 0 1 2 2v14a2 2 0 0 1-2 2H6a2 2 0 0 1-2-2V6a2 2 0 0 1 2-2h2"/></symbol>
  <symbol id="fi-folder" viewBox="0 0 24 24"><path d="M22 19a2 2 0 0 1-2 2H4a2 2 0 0 1-2-2V5a2 2 0 0 1 2-2h5l2 3h9a2 2 0 0 1 2 2z"/></symbol>
  <symbol id="fi-film" viewBox="0 0 24 24"><rect x="2" y="2" width="20" height="20" rx="2.18"/><line x1="7" y1="2" x2="7" y2="22"/><line x1="17" y1="2" x2="17" y2="22"/><line x1="2" y1="12" x2="22" y2="12"/><line x1="2" y1="7" x2="7" y2="7"/><line x1="2" y1="17" x2="7" y2="17"/><line x1="17" y1="17" x2="22" y2="17"/><line x1="17" y1="7" x2="22" y2="7"/></symbol>
  <symbol id="fi-music" viewBox="0 0 24 24"><circle cx="6" cy="18" r="3"/><circle cx="18" cy="16" r="3"/><path d="M9 18V5l12-2v13"/></symbol>
  <symbol id="fi-cloud" viewBox="0 0 24 24"><path d="M18 10h-1.26A8 8 0 1 0 9 20h9a5 5 0 0 0 0-10z"/></symbol>
  <symbol id="fi-alert" viewBox="0 0 24 24"><path d="M10.29 3.86L1.82 18a2 2 0 0 0 1.71 3h16.94a2 2 0 0 0 1.71-3L13.71 3.86a2 2 0 0 0-3.42 0z"/><line x1="12" y1="9" x2="12" y2="13"/><line x1="12" y1="17" x2="12.01" y2="17"/></symbol>
  <symbol id="fi-menu" viewBox="0 0 24 24"><line x1="4" y1="6" x2="20" y2="6"/><line x1="4" y1="12" x2="20" y2="12"/><line x1="4" y1="18" x2="20" y2="18"/></symbol>
  <symbol id="fi-copy" viewBox="0 0 24 24"><rect x="9" y="9" width="13" height="13" rx="2"/><path d="M5 15H4a2 2 0 0 1-2-2V4a2 2 0 0 1 2-2h9a2 2 0 0 1 2 2v1"/></symbol>
  <symbol id="fi-table" viewBox="0 0 24 24"><rect x="3" y="3" width="18" height="18" rx="2"/><line x1="3" y1="9" x2="21" y2="9"/><line x1="9" y1="3" x2="9" y2="21"/></symbol>
</svg>
